<?xml version="1.0" encoding="UTF-8"?>
<!DOCTYPE svg PUBLIC "-//W3C//DTD SVG 1.1//EN" "http://www.w3.org/Graphics/SVG/1.1/DTD/svg11.dtd">
<svg xmlns="http://www.w3.org/2000/svg" version="1.1" width="500px" height="500px" style="shape-rendering:geometricPrecision; text-rendering:geometricPrecision; image-rendering:optimizeQuality; fill-rule:evenodd; clip-rule:evenodd" xmlns:xlink="http://www.w3.org/1999/xlink">
<g><path style="opacity:0.769" fill="#f19b9f" d="M 248.5,3.5 C 248.027,4.90632 247.027,5.57298 245.5,5.5C 245.973,4.09368 246.973,3.42702 248.5,3.5 Z"/></g>
<g><path style="opacity:1" fill="#dc3947" d="M 254.5,5.5 C 254.821,7.04814 255.821,7.71481 257.5,7.5C 259.062,7.73286 260.395,8.39952 261.5,9.5C 261.821,11.0481 262.821,11.7148 264.5,11.5C 266.062,11.7329 267.395,12.3995 268.5,13.5C 268.821,15.0481 269.821,15.7148 271.5,15.5C 273.062,15.7329 274.395,16.3995 275.5,17.5C 275.821,19.0481 276.821,19.7148 278.5,19.5C 280.062,19.7329 281.395,20.3995 282.5,21.5C 282.821,23.0481 283.821,23.7148 285.5,23.5C 286.833,24.1667 288.167,24.8333 289.5,25.5C 289.821,27.0481 290.821,27.7148 292.5,27.5C 294.062,27.7329 295.395,28.3995 296.5,29.5C 296.821,31.0481 297.821,31.7148 299.5,31.5C 300.833,32.1667 302.167,32.8333 303.5,33.5C 303.821,35.0481 304.821,35.7148 306.5,35.5C 308.062,35.7329 309.395,36.3995 310.5,37.5C 310.821,39.0481 311.821,39.7148 313.5,39.5C 314.833,40.1667 316.167,40.8333 317.5,41.5C 317.821,43.0481 318.821,43.7148 320.5,43.5C 321.833,44.1667 323.167,44.8333 324.5,45.5C 324.821,47.0481 325.821,47.7148 327.5,47.5C 328.833,48.1667 330.167,48.8333 331.5,49.5C 331.821,51.0481 332.821,51.7148 334.5,51.5C 335.833,52.1667 337.167,52.8333 338.5,53.5C 338.821,55.0481 339.821,55.7148 341.5,55.5C 342.833,56.1667 344.167,56.8333 345.5,57.5C 345.821,59.0481 346.821,59.7148 348.5,59.5C 349.833,60.1667 351.167,60.8333 352.5,61.5C 352.821,63.0481 353.821,63.7148 355.5,63.5C 356.833,64.1667 358.167,64.8333 359.5,65.5C 359.821,67.0481 360.821,67.7148 362.5,67.5C 363.833,68.1667 365.167,68.8333 366.5,69.5C 366.821,71.0481 367.821,71.7148 369.5,71.5C 370.833,72.1667 372.167,72.8333 373.5,73.5C 373.821,75.0481 374.821,75.7148 376.5,75.5C 377.833,76.1667 379.167,76.8333 380.5,77.5C 380.821,79.0481 381.821,79.7148 383.5,79.5C 384.833,80.1667 386.167,80.8333 387.5,81.5C 387.821,83.0481 388.821,83.7148 390.5,83.5C 391.833,84.1667 393.167,84.8333 394.5,85.5C 394.821,87.0481 395.821,87.7148 397.5,87.5C 398.833,88.1667 400.167,88.8333 401.5,89.5C 401.821,91.0481 402.821,91.7148 404.5,91.5C 405.833,92.1667 407.167,92.8333 408.5,93.5C 408.821,95.0481 409.821,95.7148 411.5,95.5C 412.833,96.1667 414.167,96.8333 415.5,97.5C 415.821,99.0481 416.821,99.7148 418.5,99.5C 419.833,100.167 421.167,100.833 422.5,101.5C 422.821,103.048 423.821,103.715 425.5,103.5C 426.833,104.167 428.167,104.833 429.5,105.5C 429.821,107.048 430.821,107.715 432.5,107.5C 433.833,108.167 435.167,108.833 436.5,109.5C 436.821,111.048 437.821,111.715 439.5,111.5C 440.833,112.167 442.167,112.833 443.5,113.5C 443.821,115.048 444.821,115.715 446.5,115.5C 447.833,116.167 449.167,116.833 450.5,117.5C 450.821,119.048 451.821,119.715 453.5,119.5C 454.833,120.167 456.167,120.833 457.5,121.5C 457.821,123.048 458.821,123.715 460.5,123.5C 462.229,124.117 463.729,125.117 465,126.5C 465.667,208.5 465.667,290.5 465,372.5C 442.187,386.489 419.02,399.822 395.5,412.5C 393.834,331.005 392.834,249.338 392.5,167.5C 375.996,158.416 359.663,149.083 343.5,139.5C 343.027,138.094 342.027,137.427 340.5,137.5C 336.665,135.75 332.999,133.75 329.5,131.5C 329.027,130.094 328.027,129.427 326.5,129.5C 309.238,120.225 292.238,110.559 275.5,100.5C 275.027,99.0937 274.027,98.427 272.5,98.5C 270.847,98.3404 269.514,97.6737 268.5,96.5C 268.027,95.0937 267.027,94.427 265.5,94.5C 260.728,92.2796 256.062,89.7796 251.5,87C 250.167,86.3333 248.833,86.3333 247.5,87C 200.594,114.089 153.594,140.922 106.5,167.5C 106.166,249.338 105.166,331.005 103.5,412.5C 79.9801,399.822 56.8134,386.489 34,372.5C 33.3333,290.5 33.3333,208.5 34,126.5C 34.8159,125.177 35.9826,124.511 37.5,124.5C 39.0269,124.573 40.0269,123.906 40.5,122.5C 41.5137,121.326 42.847,120.66 44.5,120.5C 46.0269,120.573 47.0269,119.906 47.5,118.5C 94.5,90.9975 141.833,63.9975 189.5,37.5C 191.027,37.573 192.027,36.9063 192.5,35.5C 195.999,33.2495 199.665,31.2495 203.5,29.5C 205.027,29.573 206.027,28.9063 206.5,27.5C 209.999,25.2495 213.665,23.2495 217.5,21.5C 219.027,21.573 220.027,20.9063 220.5,19.5C 221.514,18.3263 222.847,17.6596 224.5,17.5C 226.027,17.573 227.027,16.9063 227.5,15.5C 228.514,14.3263 229.847,13.6596 231.5,13.5C 233.027,13.573 234.027,12.9063 234.5,11.5C 235.514,10.3263 236.847,9.6596 238.5,9.5C 240.027,9.57298 241.027,8.90632 241.5,7.5C 242.514,6.32627 243.847,5.6596 245.5,5.5C 247.027,5.57298 248.027,4.90632 248.5,3.5C 248.56,2.95691 248.893,2.62358 249.5,2.5C 251.36,3.25987 253.027,4.25987 254.5,5.5 Z"/></g>
<g><path style="opacity:0.965" fill="#f39899" d="M 254.5,5.5 C 255.71,5.93205 256.71,6.59872 257.5,7.5C 255.821,7.71481 254.821,7.04814 254.5,5.5 Z"/></g>
<g><path style="opacity:0.769" fill="#f19b9f" d="M 241.5,7.5 C 241.027,8.90632 240.027,9.57298 238.5,9.5C 238.973,8.09368 239.973,7.42702 241.5,7.5 Z"/></g>
<g><path style="opacity:0.969" fill="#f39899" d="M 261.5,9.5 C 262.71,9.93205 263.71,10.5987 264.5,11.5C 262.821,11.7148 261.821,11.0481 261.5,9.5 Z"/></g>
<g><path style="opacity:0.776" fill="#f19b9f" d="M 234.5,11.5 C 234.027,12.9063 233.027,13.573 231.5,13.5C 231.973,12.0937 232.973,11.427 234.5,11.5 Z"/></g>
<g><path style="opacity:0.976" fill="#f49999" d="M 268.5,13.5 C 269.71,13.9321 270.71,14.5987 271.5,15.5C 269.821,15.7148 268.821,15.0481 268.5,13.5 Z"/></g>
<g><path style="opacity:0.78" fill="#f19ca0" d="M 227.5,15.5 C 227.027,16.9063 226.027,17.573 224.5,17.5C 224.973,16.0937 225.973,15.427 227.5,15.5 Z"/></g>
<g><path style="opacity:0.976" fill="#f49999" d="M 275.5,17.5 C 276.71,17.9321 277.71,18.5987 278.5,19.5C 276.821,19.7148 275.821,19.0481 275.5,17.5 Z"/></g>
<g><path style="opacity:0.784" fill="#f19ca0" d="M 220.5,19.5 C 220.027,20.9063 219.027,21.573 217.5,21.5C 217.973,20.0937 218.973,19.427 220.5,19.5 Z"/></g>
<g><path style="opacity:0.976" fill="#f49a9a" d="M 282.5,21.5 C 283.71,21.9321 284.71,22.5987 285.5,23.5C 283.821,23.7148 282.821,23.0481 282.5,21.5 Z"/></g>
<g><path style="opacity:0.969" fill="#f49a9a" d="M 289.5,25.5 C 290.71,25.9321 291.71,26.5987 292.5,27.5C 290.821,27.7148 289.821,27.0481 289.5,25.5 Z"/></g>
<g><path style="opacity:0.761" fill="#f29ea2" d="M 206.5,27.5 C 206.027,28.9063 205.027,29.573 203.5,29.5C 203.973,28.0937 204.973,27.427 206.5,27.5 Z"/></g>
<g><path style="opacity:0.973" fill="#f49b9a" d="M 296.5,29.5 C 297.71,29.9321 298.71,30.5987 299.5,31.5C 297.821,31.7148 296.821,31.0481 296.5,29.5 Z"/></g>
<g><path style="opacity:0.969" fill="#f49b9b" d="M 303.5,33.5 C 304.71,33.9321 305.71,34.5987 306.5,35.5C 304.821,35.7148 303.821,35.0481 303.5,33.5 Z"/></g>
<g><path style="opacity:0.765" fill="#f29ea3" d="M 192.5,35.5 C 192.027,36.9063 191.027,37.573 189.5,37.5C 189.973,36.0937 190.973,35.427 192.5,35.5 Z"/></g>
<g><path style="opacity:0.969" fill="#f49b9b" d="M 310.5,37.5 C 311.71,37.9321 312.71,38.5987 313.5,39.5C 311.821,39.7148 310.821,39.0481 310.5,37.5 Z"/></g>
<g><path style="opacity:0.961" fill="#f49c9c" d="M 317.5,41.5 C 318.71,41.9321 319.71,42.5987 320.5,43.5C 318.821,43.7148 317.821,43.0481 317.5,41.5 Z"/></g>
<g><path style="opacity:0.969" fill="#f49c9c" d="M 324.5,45.5 C 325.71,45.9321 326.71,46.5987 327.5,47.5C 325.821,47.7148 324.821,47.0481 324.5,45.5 Z"/></g>
<g><path style="opacity:0.965" fill="#f49c9d" d="M 331.5,49.5 C 332.71,49.9321 333.71,50.5987 334.5,51.5C 332.821,51.7148 331.821,51.0481 331.5,49.5 Z"/></g>
<g><path style="opacity:0.961" fill="#f49c9d" d="M 338.5,53.5 C 339.71,53.9321 340.71,54.5987 341.5,55.5C 339.821,55.7148 338.821,55.0481 338.5,53.5 Z"/></g>
<g><path style="opacity:0.957" fill="#f49c9d" d="M 345.5,57.5 C 346.71,57.9321 347.71,58.5987 348.5,59.5C 346.821,59.7148 345.821,59.0481 345.5,57.5 Z"/></g>
<g><path style="opacity:0.957" fill="#f49d9e" d="M 352.5,61.5 C 353.71,61.9321 354.71,62.5987 355.5,63.5C 353.821,63.7148 352.821,63.0481 352.5,61.5 Z"/></g>
<g><path style="opacity:0.957" fill="#f49e9e" d="M 359.5,65.5 C 360.71,65.9321 361.71,66.5987 362.5,67.5C 360.821,67.7148 359.821,67.0481 359.5,65.5 Z"/></g>
<g><path style="opacity:0.953" fill="#f49e9f" d="M 366.5,69.5 C 367.71,69.9321 368.71,70.5987 369.5,71.5C 367.821,71.7148 366.821,71.0481 366.5,69.5 Z"/></g>
<g><path style="opacity:0.945" fill="#f49e9f" d="M 373.5,73.5 C 374.71,73.9321 375.71,74.5987 376.5,75.5C 374.821,75.7148 373.821,75.0481 373.5,73.5 Z"/></g>
<g><path style="opacity:0.949" fill="#f59fa0" d="M 380.5,77.5 C 381.71,77.9321 382.71,78.5987 383.5,79.5C 381.821,79.7148 380.821,79.0481 380.5,77.5 Z"/></g>
<g><path style="opacity:0.949" fill="#f5a0a0" d="M 387.5,81.5 C 388.71,81.9321 389.71,82.5987 390.5,83.5C 388.821,83.7148 387.821,83.0481 387.5,81.5 Z"/></g>
<g><path style="opacity:0.945" fill="#f5a0a0" d="M 394.5,85.5 C 395.71,85.9321 396.71,86.5987 397.5,87.5C 395.821,87.7148 394.821,87.0481 394.5,85.5 Z"/></g>
<g><path style="opacity:0.945" fill="#f5a0a0" d="M 401.5,89.5 C 402.71,89.9321 403.71,90.5987 404.5,91.5C 402.821,91.7148 401.821,91.0481 401.5,89.5 Z"/></g>
<g><path style="opacity:0.949" fill="#f5a0a0" d="M 408.5,93.5 C 409.71,93.9321 410.71,94.5987 411.5,95.5C 409.821,95.7148 408.821,95.0481 408.5,93.5 Z"/></g>
<g><path style="opacity:0.341" fill="#f5b6b9" d="M 265.5,94.5 C 267.027,94.427 268.027,95.0937 268.5,96.5C 266.973,96.573 265.973,95.9063 265.5,94.5 Z"/></g>
<g><path style="opacity:0.941" fill="#f5a1a1" d="M 415.5,97.5 C 416.71,97.9321 417.71,98.5987 418.5,99.5C 416.821,99.7148 415.821,99.0481 415.5,97.5 Z"/></g>
<g><path style="opacity:0.353" fill="#f5b4b7" d="M 272.5,98.5 C 274.027,98.427 275.027,99.0937 275.5,100.5C 273.973,100.573 272.973,99.9063 272.5,98.5 Z"/></g>
<g><path style="opacity:0.941" fill="#f5a1a2" d="M 422.5,101.5 C 423.71,101.932 424.71,102.599 425.5,103.5C 423.821,103.715 422.821,103.048 422.5,101.5 Z"/></g>
<g><path style="opacity:0.929" fill="#f5a2a2" d="M 429.5,105.5 C 430.71,105.932 431.71,106.599 432.5,107.5C 430.821,107.715 429.821,107.048 429.5,105.5 Z"/></g>
<g><path style="opacity:0.941" fill="#f5a2a2" d="M 436.5,109.5 C 437.71,109.932 438.71,110.599 439.5,111.5C 437.821,111.715 436.821,111.048 436.5,109.5 Z"/></g>
<g><path style="opacity:0.933" fill="#f5a2a3" d="M 443.5,113.5 C 444.71,113.932 445.71,114.599 446.5,115.5C 444.821,115.715 443.821,115.048 443.5,113.5 Z"/></g>
<g><path style="opacity:0.933" fill="#f5a3a4" d="M 450.5,117.5 C 451.71,117.932 452.71,118.599 453.5,119.5C 451.821,119.715 450.821,119.048 450.5,117.5 Z"/></g>
<g><path style="opacity:0.824" fill="#f0969a" d="M 47.5,118.5 C 47.0269,119.906 46.0269,120.573 44.5,120.5C 44.9731,119.094 45.9731,118.427 47.5,118.5 Z"/></g>
<g><path style="opacity:0.922" fill="#f5a3a4" d="M 457.5,121.5 C 458.71,121.932 459.71,122.599 460.5,123.5C 458.821,123.715 457.821,123.048 457.5,121.5 Z"/></g>
<g><path style="opacity:0.82" fill="#f0969b" d="M 40.5,122.5 C 40.0269,123.906 39.0269,124.573 37.5,124.5C 37.9731,123.094 38.9731,122.427 40.5,122.5 Z"/></g>
<g><path style="opacity:0.341" fill="#f5b6ba" d="M 326.5,129.5 C 328.027,129.427 329.027,130.094 329.5,131.5C 327.973,131.573 326.973,130.906 326.5,129.5 Z"/></g>
<g><path style="opacity:0.373" fill="#f4b2b6" d="M 340.5,137.5 C 342.027,137.427 343.027,138.094 343.5,139.5C 341.973,139.573 340.973,138.906 340.5,137.5 Z"/></g>
<g><path style="opacity:0.636" fill="#e87d87" d="M 106.5,167.5 C 106.667,249.834 106.5,332.167 106,414.5C 105.005,413.934 104.172,413.267 103.5,412.5C 105.166,331.005 106.166,249.338 106.5,167.5 Z"/></g>
<g><path style="opacity:0.651" fill="#e87e87" d="M 392.5,167.5 C 392.834,249.338 393.834,331.005 395.5,412.5C 394.828,413.267 393.995,413.934 393,414.5C 392.5,332.167 392.333,249.834 392.5,167.5 Z"/></g>
<g><path style="opacity:1" fill="#dc3746" d="M 252.5,168.5 C 252.821,170.048 253.821,170.715 255.5,170.5C 256.833,171.167 258.167,171.833 259.5,172.5C 259.821,174.048 260.821,174.715 262.5,174.5C 263.833,175.167 265.167,175.833 266.5,176.5C 266.821,178.048 267.821,178.715 269.5,178.5C 270.833,179.167 272.167,179.833 273.5,180.5C 273.821,182.048 274.821,182.715 276.5,182.5C 277.833,183.167 279.167,183.833 280.5,184.5C 280.821,186.048 281.821,186.715 283.5,186.5C 295.968,193.235 308.302,200.235 320.5,207.5C 321.833,235.5 321.833,263.5 320.5,291.5C 296.958,305.103 273.291,318.436 249.5,331.5C 235.989,324.915 222.989,317.582 210.5,309.5C 210.027,308.094 209.027,307.427 207.5,307.5C 205.847,307.34 204.514,306.674 203.5,305.5C 203.027,304.094 202.027,303.427 200.5,303.5C 198.847,303.34 197.514,302.674 196.5,301.5C 196.027,300.094 195.027,299.427 193.5,299.5C 191.847,299.34 190.514,298.674 189.5,297.5C 189.027,296.094 188.027,295.427 186.5,295.5C 184.847,295.34 183.514,294.674 182.5,293.5C 182.027,292.094 181.027,291.427 179.5,291.5C 178.167,263.5 178.167,235.5 179.5,207.5C 181.027,207.573 182.027,206.906 182.5,205.5C 183.514,204.326 184.847,203.66 186.5,203.5C 188.027,203.573 189.027,202.906 189.5,201.5C 190.514,200.326 191.847,199.66 193.5,199.5C 195.027,199.573 196.027,198.906 196.5,197.5C 197.514,196.326 198.847,195.66 200.5,195.5C 202.027,195.573 203.027,194.906 203.5,193.5C 204.514,192.326 205.847,191.66 207.5,191.5C 209.027,191.573 210.027,190.906 210.5,189.5C 222.989,181.418 235.989,174.085 249.5,167.5C 250.584,167.685 251.584,168.018 252.5,168.5 Z"/></g>
<g><path style="opacity:0.922" fill="#f5a2a3" d="M 252.5,168.5 C 253.71,168.932 254.71,169.599 255.5,170.5C 253.821,170.715 252.821,170.048 252.5,168.5 Z"/></g>
<g><path style="opacity:0.925" fill="#f5a2a3" d="M 259.5,172.5 C 260.71,172.932 261.71,173.599 262.5,174.5C 260.821,174.715 259.821,174.048 259.5,172.5 Z"/></g>
<g><path style="opacity:0.922" fill="#f5a2a3" d="M 266.5,176.5 C 267.71,176.932 268.71,177.599 269.5,178.5C 267.821,178.715 266.821,178.048 266.5,176.5 Z"/></g>
<g><path style="opacity:0.929" fill="#f5a2a3" d="M 273.5,180.5 C 274.71,180.932 275.71,181.599 276.5,182.5C 274.821,182.715 273.821,182.048 273.5,180.5 Z"/></g>
<g><path style="opacity:0.925" fill="#f5a2a3" d="M 280.5,184.5 C 281.71,184.932 282.71,185.599 283.5,186.5C 281.821,186.715 280.821,186.048 280.5,184.5 Z"/></g>
<g><path style="opacity:0.792" fill="#f19a9e" d="M 210.5,189.5 C 210.027,190.906 209.027,191.573 207.5,191.5C 207.973,190.094 208.973,189.427 210.5,189.5 Z"/></g>
<g><path style="opacity:0.784" fill="#f19a9e" d="M 203.5,193.5 C 203.027,194.906 202.027,195.573 200.5,195.5C 200.973,194.094 201.973,193.427 203.5,193.5 Z"/></g>
<g><path style="opacity:0.792" fill="#f19a9e" d="M 196.5,197.5 C 196.027,198.906 195.027,199.573 193.5,199.5C 193.973,198.094 194.973,197.427 196.5,197.5 Z"/></g>
<g><path style="opacity:0.792" fill="#f19a9e" d="M 189.5,201.5 C 189.027,202.906 188.027,203.573 186.5,203.5C 186.973,202.094 187.973,201.427 189.5,201.5 Z"/></g>
<g><path style="opacity:0.796" fill="#f19a9e" d="M 182.5,205.5 C 182.027,206.906 181.027,207.573 179.5,207.5C 179.973,206.094 180.973,205.427 182.5,205.5 Z"/></g>
<g><path style="opacity:0.678" fill="#e77580" d="M 179.5,207.5 C 178.167,235.5 178.167,263.5 179.5,291.5C 178.167,277.85 177.501,263.85 177.5,249.5C 177.501,235.15 178.167,221.15 179.5,207.5 Z"/></g>
<g><path style="opacity:0.376" fill="#f4b1b5" d="M 179.5,291.5 C 181.027,291.427 182.027,292.094 182.5,293.5C 180.973,293.573 179.973,292.906 179.5,291.5 Z"/></g>
<g><path style="opacity:0.373" fill="#f4b1b5" d="M 186.5,295.5 C 188.027,295.427 189.027,296.094 189.5,297.5C 187.973,297.573 186.973,296.906 186.5,295.5 Z"/></g>
<g><path style="opacity:0.373" fill="#f4b1b5" d="M 193.5,299.5 C 195.027,299.427 196.027,300.094 196.5,301.5C 194.973,301.573 193.973,300.906 193.5,299.5 Z"/></g>
<g><path style="opacity:0.373" fill="#f4b1b5" d="M 200.5,303.5 C 202.027,303.427 203.027,304.094 203.5,305.5C 201.973,305.573 200.973,304.906 200.5,303.5 Z"/></g>
<g><path style="opacity:0.373" fill="#f4b1b5" d="M 207.5,307.5 C 209.027,307.427 210.027,308.094 210.5,309.5C 208.973,309.573 207.973,308.906 207.5,307.5 Z"/></g>
<g><path style="opacity:0.678" fill="#e77680" d="M 179.5,373.5 C 178.502,400.662 178.169,427.995 178.5,455.5C 177.171,427.997 177.171,400.33 178.5,372.5C 179.107,372.624 179.44,372.957 179.5,373.5 Z"/></g>
<g><path style="opacity:0.683" fill="#e77580" d="M 319.5,373.5 C 319.56,372.957 319.893,372.624 320.5,372.5C 321.829,400.33 321.829,427.997 320.5,455.5C 320.831,427.995 320.498,400.662 319.5,373.5 Z"/></g>
<g><path style="opacity:1" fill="#dc3847" d="M 179.5,373.5 C 181.483,374.471 183.483,375.471 185.5,376.5C 185.821,378.048 186.821,378.715 188.5,378.5C 189.833,379.167 191.167,379.833 192.5,380.5C 192.821,382.048 193.821,382.715 195.5,382.5C 196.833,383.167 198.167,383.833 199.5,384.5C 199.821,386.048 200.821,386.715 202.5,386.5C 203.833,387.167 205.167,387.833 206.5,388.5C 206.821,390.048 207.821,390.715 209.5,390.5C 210.833,391.167 212.167,391.833 213.5,392.5C 213.821,394.048 214.821,394.715 216.5,394.5C 217.833,395.167 219.167,395.833 220.5,396.5C 220.821,398.048 221.821,398.715 223.5,398.5C 224.833,399.167 226.167,399.833 227.5,400.5C 227.821,402.048 228.821,402.715 230.5,402.5C 231.833,403.167 233.167,403.833 234.5,404.5C 234.821,406.048 235.821,406.715 237.5,406.5C 238.833,407.167 240.167,407.833 241.5,408.5C 241.821,410.048 242.821,410.715 244.5,410.5C 246.601,412.109 248.935,412.609 251.5,412C 274.059,398.89 296.726,386.056 319.5,373.5C 320.498,400.662 320.831,427.995 320.5,455.5C 297.06,469.392 273.393,483.059 249.5,496.5C 248.893,496.376 248.56,496.043 248.5,495.5C 248.027,494.094 247.027,493.427 245.5,493.5C 243.847,493.34 242.514,492.674 241.5,491.5C 241.027,490.094 240.027,489.427 238.5,489.5C 236.847,489.34 235.514,488.674 234.5,487.5C 234.027,486.094 233.027,485.427 231.5,485.5C 229.847,485.34 228.514,484.674 227.5,483.5C 227.027,482.094 226.027,481.427 224.5,481.5C 220.345,480.258 216.678,478.258 213.5,475.5C 213.027,474.094 212.027,473.427 210.5,473.5C 208.847,473.34 207.514,472.674 206.5,471.5C 206.027,470.094 205.027,469.427 203.5,469.5C 201.847,469.34 200.514,468.674 199.5,467.5C 199.027,466.094 198.027,465.427 196.5,465.5C 190.17,462.67 184.17,459.337 178.5,455.5C 178.169,427.995 178.502,400.662 179.5,373.5 Z"/></g>
<g><path style="opacity:0.957" fill="#f49c9c" d="M 185.5,376.5 C 186.71,376.932 187.71,377.599 188.5,378.5C 186.821,378.715 185.821,378.048 185.5,376.5 Z"/></g>
<g><path style="opacity:0.949" fill="#f49c9d" d="M 192.5,380.5 C 193.71,380.932 194.71,381.599 195.5,382.5C 193.821,382.715 192.821,382.048 192.5,380.5 Z"/></g>
<g><path style="opacity:0.957" fill="#f49c9d" d="M 199.5,384.5 C 200.71,384.932 201.71,385.599 202.5,386.5C 200.821,386.715 199.821,386.048 199.5,384.5 Z"/></g>
<g><path style="opacity:0.949" fill="#f49c9d" d="M 206.5,388.5 C 207.71,388.932 208.71,389.599 209.5,390.5C 207.821,390.715 206.821,390.048 206.5,388.5 Z"/></g>
<g><path style="opacity:0.957" fill="#f49d9e" d="M 213.5,392.5 C 214.71,392.932 215.71,393.599 216.5,394.5C 214.821,394.715 213.821,394.048 213.5,392.5 Z"/></g>
<g><path style="opacity:0.953" fill="#f49d9e" d="M 220.5,396.5 C 221.71,396.932 222.71,397.599 223.5,398.5C 221.821,398.715 220.821,398.048 220.5,396.5 Z"/></g>
<g><path style="opacity:0.957" fill="#f49e9e" d="M 227.5,400.5 C 228.71,400.932 229.71,401.599 230.5,402.5C 228.821,402.715 227.821,402.048 227.5,400.5 Z"/></g>
<g><path style="opacity:0.945" fill="#f49e9f" d="M 234.5,404.5 C 235.71,404.932 236.71,405.599 237.5,406.5C 235.821,406.715 234.821,406.048 234.5,404.5 Z"/></g>
<g><path style="opacity:0.957" fill="#f49e9f" d="M 241.5,408.5 C 242.71,408.932 243.71,409.599 244.5,410.5C 242.821,410.715 241.821,410.048 241.5,408.5 Z"/></g>
<g><path style="opacity:0.353" fill="#f5b5b9" d="M 196.5,465.5 C 198.027,465.427 199.027,466.094 199.5,467.5C 197.973,467.573 196.973,466.906 196.5,465.5 Z"/></g>
<g><path style="opacity:0.357" fill="#f5b5b8" d="M 203.5,469.5 C 205.027,469.427 206.027,470.094 206.5,471.5C 204.973,471.573 203.973,470.906 203.5,469.5 Z"/></g>
<g><path style="opacity:0.361" fill="#f5b5b8" d="M 210.5,473.5 C 212.027,473.427 213.027,474.094 213.5,475.5C 211.973,475.573 210.973,474.906 210.5,473.5 Z"/></g>
<g><path style="opacity:0.365" fill="#f5b3b7" d="M 224.5,481.5 C 226.027,481.427 227.027,482.094 227.5,483.5C 225.973,483.573 224.973,482.906 224.5,481.5 Z"/></g>
<g><path style="opacity:0.365" fill="#f5b3b6" d="M 231.5,485.5 C 233.027,485.427 234.027,486.094 234.5,487.5C 232.973,487.573 231.973,486.906 231.5,485.5 Z"/></g>
<g><path style="opacity:0.373" fill="#f4b2b6" d="M 238.5,489.5 C 240.027,489.427 241.027,490.094 241.5,491.5C 239.973,491.573 238.973,490.906 238.5,489.5 Z"/></g>
<g><path style="opacity:0.369" fill="#f4b2b6" d="M 245.5,493.5 C 247.027,493.427 248.027,494.094 248.5,495.5C 246.973,495.573 245.973,494.906 245.5,493.5 Z"/></g>
</svg>
