<?xml version="1.0" encoding="UTF-8"?>
<!DOCTYPE svg PUBLIC "-//W3C//DTD SVG 1.1//EN" "http://www.w3.org/Graphics/SVG/1.1/DTD/svg11.dtd">
<svg xmlns="http://www.w3.org/2000/svg" version="1.1" width="500px" height="500px" style="shape-rendering:geometricPrecision; text-rendering:geometricPrecision; image-rendering:optimizeQuality; fill-rule:evenodd; clip-rule:evenodd" xmlns:xlink="http://www.w3.org/1999/xlink">
<g><path style="opacity:1" fill="#fbfafa" d="M 104.5,179.5 C 104.821,181.048 105.821,181.715 107.5,181.5C 108.833,182.167 110.167,182.833 111.5,183.5C 111.821,185.048 112.821,185.715 114.5,185.5C 119.833,188.5 125.167,191.5 130.5,194.5C 130.821,196.048 131.821,196.715 133.5,196.5C 134.833,197.167 136.167,197.833 137.5,198.5C 137.821,200.048 138.821,200.715 140.5,200.5C 145.833,203.5 151.167,206.5 156.5,209.5C 157.482,236.122 157.816,262.789 157.5,289.5C 151.127,293.687 144.461,297.353 137.5,300.5C 137.164,274.65 136.164,248.984 134.5,223.5C 120.229,215.74 106.063,207.74 92,199.5C 77.0317,207.645 62.1983,215.978 47.5,224.5C 46.8333,249.833 46.1667,275.167 45.5,300.5C 38.903,297.225 32.5697,293.558 26.5,289.5C 25.5095,263.241 25.1762,236.908 25.5,210.5C 46.9983,197.864 68.6649,185.364 90.5,173C 95.4395,174.299 100.106,176.466 104.5,179.5 Z"/></g>
<g><path style="opacity:0.925" fill="#a2a09c" d="M 104.5,179.5 C 105.71,179.932 106.71,180.599 107.5,181.5C 105.821,181.715 104.821,181.048 104.5,179.5 Z"/></g>
<g><path style="opacity:0.91" fill="#9e9d98" d="M 111.5,183.5 C 112.71,183.932 113.71,184.599 114.5,185.5C 112.821,185.715 111.821,185.048 111.5,183.5 Z"/></g>
<g><path style="opacity:0.933" fill="#a3a19d" d="M 130.5,194.5 C 131.71,194.932 132.71,195.599 133.5,196.5C 131.821,196.715 130.821,196.048 130.5,194.5 Z"/></g>
<g><path style="opacity:0.914" fill="#9f9e99" d="M 137.5,198.5 C 138.71,198.932 139.71,199.599 140.5,200.5C 138.821,200.715 137.821,200.048 137.5,198.5 Z"/></g>
<g><path style="opacity:1" fill="#f6f6f5" d="M 287.5,218.5 C 287.427,220.027 288.094,221.027 289.5,221.5C 290.725,222.937 291.725,224.604 292.5,226.5C 288.231,229.551 283.731,232.218 279,234.5C 270.03,223.136 258.864,220.636 245.5,227C 240.424,231.318 237.591,236.818 237,243.5C 235.754,253.438 236.754,263.105 240,272.5C 242.455,277.149 246.288,279.983 251.5,281C 267.268,284.637 275.268,278.47 275.5,262.5C 269.021,261.509 262.354,261.176 255.5,261.5C 255.5,257.167 255.5,252.833 255.5,248.5C 267.833,248.5 280.167,248.5 292.5,248.5C 292.5,264.167 292.5,279.833 292.5,295.5C 287.086,296.297 281.753,296.297 276.5,295.5C 276.824,291.445 276.491,287.445 275.5,283.5C 274.893,283.624 274.56,283.957 274.5,284.5C 270.548,293.742 263.381,298.075 253,297.5C 250.784,297.347 248.617,297.014 246.5,296.5C 244.485,295.076 242.152,294.41 239.5,294.5C 236.151,293.831 233.484,292.164 231.5,289.5C 231.027,288.094 230.027,287.427 228.5,287.5C 220.858,277.571 217.191,266.237 217.5,253.5C 216.525,237.3 222.192,224.134 234.5,214C 237.309,212.259 240.309,211.092 243.5,210.5C 246.152,210.59 248.485,209.924 250.5,208.5C 261.278,206.873 271.611,208.373 281.5,213C 283.996,214.331 285.996,216.164 287.5,218.5 Z"/></g>
<g><path style="opacity:0.886" fill="#afaeab" d="M 250.5,208.5 C 248.485,209.924 246.152,210.59 243.5,210.5C 245.515,209.076 247.848,208.41 250.5,208.5 Z"/></g>
<g><path style="opacity:1" fill="#f8f8f8" d="M 342.5,226.5 C 342.738,228.404 343.738,229.738 345.5,230.5C 346.6,231.605 347.267,232.938 347.5,234.5C 347.427,236.027 348.094,237.027 349.5,237.5C 350.89,238.899 351.89,240.566 352.5,242.5C 352.427,244.027 353.094,245.027 354.5,245.5C 355.89,246.899 356.89,248.566 357.5,250.5C 357.427,252.027 358.094,253.027 359.5,253.5C 361.922,257.344 364.589,261.01 367.5,264.5C 368.497,246.341 368.83,228.008 368.5,209.5C 372.584,209.333 376.917,209.333 381.5,209.5C 383.492,237.814 384.159,266.481 383.5,295.5C 378.167,295.5 372.833,295.5 367.5,295.5C 365.926,295.063 364.759,294.063 364,292.5C 353.059,274.268 341.892,256.268 330.5,238.5C 330.672,237.508 330.338,236.842 329.5,236.5C 328.503,255.993 328.17,275.66 328.5,295.5C 323.167,295.5 317.833,295.5 312.5,295.5C 311.336,267.003 311.17,238.336 312,209.5C 312.414,209.043 312.914,208.709 313.5,208.5C 319.783,209.294 326.116,209.794 332.5,210C 336.233,215.306 339.566,220.806 342.5,226.5 Z"/></g>
<g><path style="opacity:0.619" fill="#bdbcb9" d="M 368.5,209.5 C 368.83,228.008 368.497,246.341 367.5,264.5C 367.586,263.504 367.252,262.671 366.5,262C 367.16,244.402 367.827,226.902 368.5,209.5 Z"/></g>
<g><path style="opacity:0.799" fill="#bcbab8" d="M 381.5,209.5 C 382.849,208.203 384.182,208.37 385.5,210C 384.337,238.291 384.337,266.625 385.5,295C 382.522,296.125 379.355,296.625 376,296.5C 372.979,296.498 370.146,296.164 367.5,295.5C 372.833,295.5 378.167,295.5 383.5,295.5C 384.159,266.481 383.492,237.814 381.5,209.5 Z"/></g>
<g><path style="opacity:1" fill="#f4f4f3" d="M 457.5,234.5 C 457.41,237.152 458.076,239.485 459.5,241.5C 462.543,248.96 465.21,256.627 467.5,264.5C 467.259,266.898 467.926,268.898 469.5,270.5C 472.484,278.385 475.484,286.385 478.5,294.5C 478.291,295.086 477.957,295.586 477.5,296C 471.833,296.667 466.167,296.667 460.5,296C 457.89,290.011 455.556,283.845 453.5,277.5C 442.34,276.176 431.34,276.176 420.5,277.5C 419.662,277.842 419.328,278.508 419.5,279.5C 418.01,285.438 416.344,290.938 414.5,296C 409.259,296.211 404.093,296.378 399,296.5C 397.72,296.387 396.887,295.72 396.5,294.5C 406.112,265.995 416.112,237.662 426.5,209.5C 433.628,208.738 440.962,208.571 448.5,209C 451.885,217.378 454.885,225.878 457.5,234.5 Z M 436.5,228.5 C 437.167,229.167 437.833,229.833 438.5,230.5C 441.194,239.945 444.194,249.278 447.5,258.5C 444.402,259.821 440.902,260.488 437,260.5C 433.098,260.488 429.598,259.821 426.5,258.5C 427.434,257.432 427.768,256.099 427.5,254.5C 429.213,253.365 429.88,251.698 429.5,249.5C 432.029,242.579 434.363,235.579 436.5,228.5 Z"/></g>
<g><path style="opacity:0.735" fill="#d0cfcd" d="M 25.5,210.5 C 25.1762,236.908 25.5095,263.241 26.5,289.5C 25.1675,276.684 24.5008,263.517 24.5,250C 24.5001,236.662 24.8334,223.496 25.5,210.5 Z"/></g>
<g><path style="opacity:0.849" fill="#e2e2e1" d="M 156.5,209.5 C 157.117,209.611 157.617,209.944 158,210.5C 158.83,237.003 158.663,263.337 157.5,289.5C 157.816,262.789 157.482,236.122 156.5,209.5 Z"/></g>
<g><path style="opacity:0.529" fill="#9b9995" d="M 287.5,218.5 C 288.906,218.973 289.573,219.973 289.5,221.5C 288.094,221.027 287.427,220.027 287.5,218.5 Z"/></g>
<g><path style="opacity:0.528" fill="#adaca9" d="M 47.5,224.5 C 47.8331,250.175 47.4998,275.842 46.5,301.5C 45.8933,301.376 45.56,301.043 45.5,300.5C 46.1667,275.167 46.8333,249.833 47.5,224.5 Z"/></g>
<g><path style="opacity:0.418" fill="#9a9894" d="M 134.5,223.5 C 136.164,248.984 137.164,274.65 137.5,300.5C 137.44,301.043 137.107,301.376 136.5,301.5C 135.825,275.434 135.158,249.434 134.5,223.5 Z"/></g>
<g><path style="opacity:1" fill="#f8f8f8" d="M 98.5,227.5 C 98.8212,229.048 99.8212,229.715 101.5,229.5C 105.167,231.5 108.833,233.5 112.5,235.5C 113.447,244.78 113.78,254.114 113.5,263.5C 106.414,267.912 99.0802,271.912 91.5,275.5C 83.8835,272.025 76.5502,268.025 69.5,263.5C 68.1667,254.5 68.1667,245.5 69.5,236.5C 76.9183,232.04 84.4183,227.707 92,223.5C 93.9438,225.221 96.1105,226.554 98.5,227.5 Z"/></g>
<g><path style="opacity:0.569" fill="#817e79" d="M 436.5,228.5 C 436.56,227.957 436.893,227.624 437.5,227.5C 438.386,228.325 438.719,229.325 438.5,230.5C 437.833,229.833 437.167,229.167 436.5,228.5 Z"/></g>
<g><path style="opacity:0.925" fill="#a2a09c" d="M 98.5,227.5 C 99.7095,227.932 100.71,228.599 101.5,229.5C 99.8212,229.715 98.8212,229.048 98.5,227.5 Z"/></g>
<g><path style="opacity:0.549" fill="#969490" d="M 342.5,226.5 C 344.262,227.262 345.262,228.596 345.5,230.5C 343.738,229.738 342.738,228.404 342.5,226.5 Z"/></g>
<g><path style="opacity:0.541" fill="#a4a29e" d="M 347.5,234.5 C 348.906,234.973 349.573,235.973 349.5,237.5C 348.094,237.027 347.427,236.027 347.5,234.5 Z"/></g>
<g><path style="opacity:0.322" fill="#8c8a85" d="M 112.5,235.5 C 113.117,235.611 113.617,235.944 114,236.5C 114.824,245.676 114.657,254.676 113.5,263.5C 113.78,254.114 113.447,244.78 112.5,235.5 Z"/></g>
<g><path style="opacity:0.437" fill="#8f8d88" d="M 329.5,236.5 C 329.328,237.492 329.662,238.158 330.5,238.5C 329.513,257.757 329.18,277.091 329.5,296.5C 323.642,296.822 317.975,296.489 312.5,295.5C 317.833,295.5 323.167,295.5 328.5,295.5C 328.17,275.66 328.503,255.993 329.5,236.5 Z"/></g>
<g><path style="opacity:0.663" fill="#8e8c88" d="M 457.5,234.5 C 458.924,236.515 459.59,238.848 459.5,241.5C 458.076,239.485 457.41,237.152 457.5,234.5 Z"/></g>
<g><path style="opacity:0.522" fill="#a2a09c" d="M 352.5,242.5 C 353.906,242.973 354.573,243.973 354.5,245.5C 353.094,245.027 352.427,244.027 352.5,242.5 Z"/></g>
<g><path style="opacity:0.006" fill="#73706a" d="M 429.5,249.5 C 429.88,251.698 429.213,253.365 427.5,254.5C 427.796,252.597 428.463,250.93 429.5,249.5 Z"/></g>
<g><path style="opacity:0.514" fill="#a09e9b" d="M 357.5,250.5 C 358.906,250.973 359.573,251.973 359.5,253.5C 358.094,253.027 357.427,252.027 357.5,250.5 Z"/></g>
<g><path style="opacity:0.155" fill="#6f6d67" d="M 426.5,258.5 C 429.598,259.821 433.098,260.488 437,260.5C 440.902,260.488 444.402,259.821 447.5,258.5C 448.404,259.209 448.737,260.209 448.5,261.5C 440.833,261.5 433.167,261.5 425.5,261.5C 425.263,260.209 425.596,259.209 426.5,258.5 Z"/></g>
<g><path style="opacity:0.419" fill="#888581" d="M 292.5,295.5 C 292.5,279.833 292.5,264.167 292.5,248.5C 280.167,248.5 267.833,248.5 255.5,248.5C 255.5,252.833 255.5,257.167 255.5,261.5C 262.354,261.176 269.021,261.509 275.5,262.5C 268.5,262.5 261.5,262.5 254.5,262.5C 254.5,257.5 254.5,252.5 254.5,247.5C 267.5,247.5 280.5,247.5 293.5,247.5C 293.83,263.675 293.496,279.675 292.5,295.5 Z"/></g>
<g><path style="opacity:0.718" fill="#a7a6a2" d="M 467.5,264.5 C 469.074,266.102 469.741,268.102 469.5,270.5C 467.926,268.898 467.259,266.898 467.5,264.5 Z"/></g>
<g><path style="opacity:0.18" fill="#797771" d="M 420.5,277.5 C 421.439,278.327 421.105,278.994 419.5,279.5C 419.328,278.508 419.662,277.842 420.5,277.5 Z"/></g>
<g><path style="opacity:0.275" fill="#8b8883" d="M 274.5,284.5 C 274.56,283.957 274.893,283.624 275.5,283.5C 276.491,287.445 276.824,291.445 276.5,295.5C 275.833,291.833 275.167,288.167 274.5,284.5 Z"/></g>
<g><path style="opacity:0.694" fill="#9b9994" d="M 228.5,287.5 C 230.027,287.427 231.027,288.094 231.5,289.5C 229.973,289.573 228.973,288.906 228.5,287.5 Z"/></g>
<g><path style="opacity:1" fill="#f4f4f3" d="M 111.5,289.5 C 113.468,297.433 114.135,305.766 113.5,314.5C 106.56,319.311 99.2263,323.644 91.5,327.5C 84.0817,323.04 76.5817,318.707 69,314.5C 68.5002,305.84 68.3336,297.173 68.5,288.5C 76.5428,291.689 84.2095,295.689 91.5,300.5C 98.1938,296.821 104.86,293.154 111.5,289.5 Z"/></g>
<g><path style="opacity:0.318" fill="#8b8984" d="M 111.5,289.5 C 112.209,288.596 113.209,288.263 114.5,288.5C 114.826,297.349 114.493,306.016 113.5,314.5C 114.135,305.766 113.468,297.433 111.5,289.5 Z"/></g>
<g><path style="opacity:0.647" fill="#adaba8" d="M 239.5,294.5 C 242.152,294.41 244.485,295.076 246.5,296.5C 243.848,296.59 241.515,295.924 239.5,294.5 Z"/></g>
</svg>
